# xmcd CD database file
#
# Track frame offsets:
#	150
#	18103
#	32018
#	50508
#	68233
#	85038
#	103803
#	120068
#	131705
#	147420
#
# Disc length: 2202 seconds
#
# Revision: 0
# Processed by: cddbd v1.5PL3 Copyright (c) Steve Scherf et al.
# Submitted via: CDex 1.50
#
DISCID=7e08980a
DTITLE=GODIEGO - KATHMANDU
DYEAR=1980
DGENRE=Rock
TTITLE0=COMING TOGHTHER IN KATHMANDU
TTITLE1=WHEN I GET THERE
TTITLE2=THE ROAD OF SILK AND SPICE
TTITLE3=CARAVANSERAI
TTITLE4=NAMASTE
TTITLE5=LEIDI LAIDI
TTITLE6=STONE DRY
TTITLE7=IMAGES OF MYSTERY
TTITLE8=WAVE GOOD-BYE
TTITLE9=COMING TOGETHER IN KATHMANDU - JAPANESE VERSION
EXTD=YEAR: 1980
EXTT0=
EXTT1=
EXTT2=
EXTT3=
EXTT4=
EXTT5=
EXTT6=
EXTT7=
EXTT8=
EXTT9=
PLAYORDER=
